# xmcd
#
# Track frame offsets: 
#        150
#        20555
#        33822
#        47426
#        62109
#        78466
#        96486
#        111049
#        124921
#        143045
#        158037
#        175027
#        191143
#        210464
#        223338
#        237568
#
# Disc length: 3379 seconds
#
# Revision: 0
# Processed by: cddbd v1.5.2PL0 Copyright (c) Steve Scherf et al.
# Submitted via: ExactAudioCopy v1.3
#
DISCID=e30d3110
DTITLE=Charly Beutin - Born, wo de Wind herkümmt
DYEAR=2011
DGENRE=Blues, Rock, Plattdeutsch
TTITLE0=Born, wo de Wind herkümmt
TTITLE1=De Putenpellenmann
TTITLE2=Platz in't Himmelbett
TTITLE3=Rode Rosen
TTITLE4=Jetzt küsst mi nur noch de Blues
TTITLE5=Wo is dat Problem
TTITLE6=Hey mien Seuten
TTITLE7=Gedeckte Appeltorte
TTITLE8=Tosom
TTITLE9=Frollein Sasse
TTITLE10=Avernakø
TTITLE11=Hör mal 'n beten to
TTITLE12=Versteihst du disse Leed
TTITLE13=Hey Johann
TTITLE14=Allns wat du hest
TTITLE15=Wi schenk' uns nix
EXTD=
EXTT0=
EXTT1=
EXTT2=
EXTT3=
EXTT4=
EXTT5=
EXTT6=
EXTT7=
EXTT8=
EXTT9=
EXTT10=
EXTT11=
EXTT12=
EXTT13=
EXTT14=
EXTT15=
PLAYORDER=
